<svg xmlns="http://www.w3.org/2000/svg" viewBox="0 0 800 560" role="img" aria-label="Illustration of commercial washroom plumbing and water distribution"><defs><pattern id="grid" width="40" height="40" patternUnits="userSpaceOnUse"><path d="M40 0H0V40" fill="none" stroke="#c7dce6" stroke-width="1"/></pattern><linearGradient id="paper" x2="1" y2="1"><stop stop-color="#f3f8f7"/><stop offset="1" stop-color="#dcecf0"/></linearGradient><linearGradient id="copper"><stop stop-color="#b46b45"/><stop offset=".5" stop-color="#edb18a"/><stop offset="1" stop-color="#995334"/></linearGradient><filter id="shadow"><feDropShadow dx="0" dy="12" stdDeviation="12" flood-color="#12364a" flood-opacity=".12"/></filter></defs><rect width="800" height="560" fill="url(#paper)"/><rect width="800" height="560" fill="url(#grid)" opacity=".5"/><circle cx="660" cy="85" r="150" fill="#c9e5eb" opacity=".55"/><text x="54" y="57" font-family="Arial,sans-serif" font-size="17" fill="#234555" letter-spacing="1">COMMERCIAL / WATER SYSTEMS</text><g filter="url(#shadow)"><rect x="92" y="98" width="616" height="320" rx="12" fill="#fff"/><rect x="92" y="98" width="616" height="43" rx="12" fill="#17394e"/><text x="116" y="125" font-family="Arial,sans-serif" font-size="14" fill="#fff" letter-spacing="1">A WORKING SPACE. A CONNECTED SYSTEM.</text><path d="M120 268H680M370 156V400" stroke="#d8e6eb" stroke-width="2"/><g fill="#e4f0f3" stroke="#698797" stroke-width="3"><path d="M141 221h172l-18 36H161Z"/><path d="M453 221h172l-18 36H473Z"/></g><g fill="none" stroke="#577f93" stroke-width="8"><path d="M214 218v-34q0-21 24-21h18v19M526 218v-34q0-21 24-21h18v19"/><path d="M228 258v44q0 20 24 20h25v45M540 258v44q0 20 24 20h25v45"/></g><path d="M128 385H661M185 385V288M494 385V288" fill="none" stroke="#17425b" stroke-width="22" stroke-linejoin="round"/><path d="M128 385H661M185 385V288M494 385V288" fill="none" stroke="#61b8d6" stroke-width="12" stroke-linejoin="round"/><g fill="#fff" stroke="#be7b54" stroke-width="5"><circle cx="331" cy="385" r="18"/><circle cx="639" cy="385" r="18"/></g><path d="M317 385h28M625 385h28" stroke="#be7b54" stroke-width="5"/></g><text x="108" y="464" font-family="Arial,sans-serif" font-size="16" fill="#234555" letter-spacing="1">WASHROOMS</text><text x="344" y="464" font-family="Arial,sans-serif" font-size="16" fill="#234555" letter-spacing="1">PIPEWORK</text><text x="558" y="464" font-family="Arial,sans-serif" font-size="16" fill="#234555" letter-spacing="1">MAINTENANCE</text><path d="M110 484h576" stroke="#7aabbb" stroke-dasharray="5 8"/><text x="54" y="531" font-family="Arial,sans-serif" font-size="13" fill="#234555" letter-spacing="1">SERVICE ILLUSTRATION / NOT A TRST PROJECT</text></svg>