<svg xmlns="http://www.w3.org/2000/svg" viewBox="0 0 800 560" role="img" aria-label="Concept illustration of a gas meter, isolation valve and copper supply pipe"><defs><pattern id="grid" width="40" height="40" patternUnits="userSpaceOnUse"><path d="M40 0H0V40" fill="none" stroke="#c7dce6" stroke-width="1"/></pattern><linearGradient id="paper" x2="1" y2="1"><stop stop-color="#f3f8f7"/><stop offset="1" stop-color="#dcecf0"/></linearGradient><linearGradient id="copper"><stop stop-color="#b46b45"/><stop offset=".5" stop-color="#edb18a"/><stop offset="1" stop-color="#995334"/></linearGradient><filter id="shadow"><feDropShadow dx="0" dy="12" stdDeviation="12" flood-color="#12364a" flood-opacity=".12"/></filter></defs><rect width="800" height="560" fill="url(#paper)"/><rect width="800" height="560" fill="url(#grid)" opacity=".5"/><circle cx="660" cy="85" r="150" fill="#c9e5eb" opacity=".55"/><text x="54" y="57" font-family="Arial,sans-serif" font-size="17" fill="#234555" letter-spacing="1">GAS / SUPPLY &amp; CONNECTIONS</text><g filter="url(#shadow)"><rect x="236" y="106" width="321" height="309" rx="22" fill="#f7faf9" stroke="#9bb2bc" stroke-width="3"/><rect x="267" y="148" width="259" height="74" rx="7" fill="#17394e"/><text x="291" y="193" font-family="Arial,sans-serif" font-size="25" fill="#fff" letter-spacing="1">GAS METER</text><rect x="283" y="250" width="225" height="89" rx="9" fill="#dfe9e8"/><g fill="#17425b"><rect x="303" y="270" width="24" height="47" rx="3"/><rect x="343" y="270" width="24" height="47" rx="3"/><rect x="383" y="270" width="24" height="47" rx="3"/><rect x="423" y="270" width="24" height="47" rx="3"/><rect x="463" y="270" width="24" height="47" rx="3"/></g><path d="M70 446V167Q70 145 91 145H237M556 145H660Q690 145 690 176V448" fill="none" stroke="#985835" stroke-width="29"/><path d="M70 446V167Q70 145 91 145H237M556 145H660Q690 145 690 176V448" fill="none" stroke="url(#copper)" stroke-width="22"/><rect x="47" y="318" width="46" height="49" rx="7" fill="#b58954"/><path d="M70 339h78" stroke="#d5b448" stroke-width="13" stroke-linecap="round"/><circle cx="70" cy="339" r="12" fill="#17394e"/><text x="294" y="386" font-family="Arial,sans-serif" font-size="13" fill="#234555" letter-spacing="1">CONCEPT DIAGRAM</text></g><text x="121" y="474" font-family="Arial,sans-serif" font-size="16" fill="#234555" letter-spacing="1">METER</text><text x="338" y="474" font-family="Arial,sans-serif" font-size="16" fill="#234555" letter-spacing="1">VALVE</text><text x="541" y="474" font-family="Arial,sans-serif" font-size="16" fill="#234555" letter-spacing="1">SUPPLY PIPE</text><text x="54" y="531" font-family="Arial,sans-serif" font-size="13" fill="#234555" letter-spacing="1">SERVICE ILLUSTRATION / NOT AN INSTALLATION GUIDE</text></svg>