<svg xmlns="http://www.w3.org/2000/svg" viewBox="0 0 800 560" role="img" aria-label="Step three: confirm the quote, agreed scope and appointment"><defs><pattern id="grid" width="40" height="40" patternUnits="userSpaceOnUse"><path d="M40 0H0V40" fill="none" stroke="#c7dce6" stroke-width="1"/></pattern><linearGradient id="paper" x2="1" y2="1"><stop stop-color="#f3f8f7"/><stop offset="1" stop-color="#dcecf0"/></linearGradient><linearGradient id="copper"><stop stop-color="#b46b45"/><stop offset=".5" stop-color="#edb18a"/><stop offset="1" stop-color="#995334"/></linearGradient><filter id="shadow"><feDropShadow dx="0" dy="12" stdDeviation="12" flood-color="#12364a" flood-opacity=".12"/></filter></defs><rect width="800" height="560" fill="url(#paper)"/><rect width="800" height="560" fill="url(#grid)" opacity=".5"/><circle cx="660" cy="85" r="150" fill="#c9e5eb" opacity=".55"/><g filter="url(#shadow)"><rect x="94" y="121" width="335" height="321" rx="17" fill="#fff" stroke="#b1c9d1" stroke-width="3"/><path d="M94 140q0-19 19-19h297q19 0 19 19v52H94Z" fill="#17425b"/><text x="139" y="168" font-family="Arial,sans-serif" font-size="16" fill="#fff" letter-spacing="1">AGREE A SUITABLE TIME</text><g fill="#d5e7eb"><rect x="123" y="220" width="47" height="43" rx="7" transform="translate(0 0)"/><rect x="123" y="220" width="47" height="43" rx="7" transform="translate(71 0)"/><rect x="123" y="220" width="47" height="43" rx="7" transform="translate(142 0)"/><rect x="123" y="220" width="47" height="43" rx="7" transform="translate(213 0)"/><rect x="123" y="284" width="47" height="43" rx="7" transform="translate(0 0)"/><rect x="123" y="284" width="47" height="43" rx="7" transform="translate(71 0)"/><rect x="123" y="284" width="47" height="43" rx="7" transform="translate(142 0)"/><rect x="123" y="284" width="47" height="43" rx="7" transform="translate(213 0)"/><rect x="123" y="348" width="47" height="43" rx="7" transform="translate(0 0)"/><rect x="123" y="348" width="47" height="43" rx="7" transform="translate(71 0)"/><rect x="123" y="348" width="47" height="43" rx="7" transform="translate(142 0)"/><rect x="123" y="348" width="47" height="43" rx="7" transform="translate(213 0)"/></g><rect x="194" y="284" width="47" height="43" rx="7" fill="#1267a2"/><path d="m203 303 10 10 18-21" fill="none" stroke="#fff" stroke-width="4"/><rect x="447" y="164" width="235" height="286" rx="10" fill="#fdfcf6" stroke="#aec5ce" stroke-width="3"/><text x="474" y="203" font-family="Arial,sans-serif" font-size="16" fill="#234555" letter-spacing="1">AGREED DETAILS</text><path d="M474 228h171M474 251h131M474 275h153" stroke="#9ab5bf" stroke-width="7"/><circle cx="566" cy="355" r="51" fill="#d9eeeb"/><path d="m536 355 20 20 40-44" stroke="#127475" stroke-width="9" fill="none" stroke-linecap="round" stroke-linejoin="round"/></g><text x="98" y="510" font-family="Arial,sans-serif" font-size="17" fill="#234555" letter-spacing="1">03 / CLEAR DETAILS. A CONFIRMED NEXT STEP.</text></svg>